# AST/ASF file generated using VICON BodyLanguage
# -----------------------------------------------
:version 1.10
:name VICON
:units
  mass 1.0
  length 0.45
  angle deg
:documentation
   .ast/.asf automatically generated from VICON data using
   VICON BodyBuilder and BodyLanguage model FoxedUp or BRILLIANT.MOD
:root
   order TX TY TZ RX RY RZ
   axis XYZ
   position 0 0 0  
   orientation 0 0 0 
:bonedata
  begin
     id 1 
     name lhipjoint
     direction 0.643272 -0.706573 0.294883 
     length 2.58915 
     axis 0 0 0  XYZ
  end
  begin
     id 2 
     name lfemur
     direction 0.34202 -0.939693 0  
     length 7.06802  
     axis 0 0 20  XYZ
    dof rx ry rz
    limits (-160.0 20.0)
           (-70.0 70.0)
           (-60.0 70.0)
  end
  begin
     id 3 
     name ltibia
     direction 0.34202 -0.939693 0   
     length 7.94147   
     axis 0 0 20   XYZ
    dof rx
    limits (-10.0 170.0)
  end
  begin
     id 4 
     name lfoot
     direction 0.0435058 -0.119531 0.991877   
     length 1.8399   
     axis -90 7.62852e-016 20   XYZ
    dof rx rz
    limits (-45.0 90.0)
           (-70.0 20.0)
  end
  begin
     id 5 
     name ltoes
     direction 1.53505e-011 -4.22157e-011 1   
     length 0.934412   
     axis -90 7.62852e-016 20   XYZ
    dof rx
    limits (-90.0 20.0)
  end
  begin
     id 6 
     name rhipjoint
     direction -0.636801 -0.711547 0.296959   
     length 2.57105  
     axis 0 0 0  XYZ 
  end
  begin
     id 7 
     name rfemur
     direction -0.34202 -0.939693 0   
     length 7.03285   
     axis 0 0 -20   XYZ
    dof rx ry rz
    limits (-160.0 20.0)
           (-70.0 70.0)
           (-70.0 60.0)
  end
  begin
     id 8 
     name rtibia
     direction -0.34202 -0.939693 0   
     length 7.99111   
     axis 0 0 -20   XYZ
    dof rx
    limits (-10.0 170.0)
 end
 begin
     id 9 
     name rfoot
     direction -0.0783088 -0.215152 0.973436   
     length 1.98785  
     axis -90 -7.62852e-016 -20   XYZ
    dof rx rz
    limits (-45.0 90.0)
           (-20.0 70.0)
  end
  begin
     id 10 
     name rtoes
     direction -1.53606e-011 -4.21943e-011 1   
     length 1.001   
     axis -90 -7.62852e-016 -20   XYZ
    dof rx
    limits (-90.0 20.0)
  end
  begin
     id 11 
     name lowerback
     direction 0.00141527 0.998403 -0.0564763   
     length 2.30486   
     axis 0 0 0   XYZ
    dof rx ry rz
    limits (-20.0 45.0)
           (-30.0 30.0)
           (-30.0 30.0)
  end
  begin
     id 12 
     name upperback
     direction 0.0125137 0.999915 0.00361315   
     length 2.30697   
     axis 0 0 0   XYZ
    dof rx ry rz
    limits (-20.0 45.0)
           (-30.0 30.0)
           (-30.0 30.0)
  end
  begin
     id 13 
     name thorax
     direction 0.0136417 0.999471 0.0295116   
     length 2.31005   
     axis 0 0 0   XYZ
    dof rx ry rz
    limits (-20.0 45.0)
           (-30.0 30.0)
           (-30.0 30.0)
  end
  begin
     id 14 
     name lowerneck
     direction 0.0766806 0.997047 0.00422047   
     length 1.68825   
     axis 0 0 0   XYZ
    dof rx ry rz
    limits (-20.0 45.0)
           (-30.0 30.0)
           (-30.0 30.0)
  end
  begin
     id 15 
     name upperneck
     direction -0.143512 0.985106 -0.0947088   
     length 1.69772   
     axis 0 0 0   XYZ
    dof rx ry rz
    limits (-20.0 45.0)
           (-30.0 30.0)
           (-30.0 30.0)
  end
  begin
     id 16
     name head
     direction -0.0539128 0.997849 -0.0372864  
     length 1.71187  
     axis 0 0 0   XYZ
    dof rx ry rz
    limits (-20.0 45.0)
           (-30.0 30.0)
           (-30.0 30.0)
  end
  begin
     id 17 
     name lclavicle
     direction 0.978251 0.207416 -0.00165765  
     length 3.35399  
     axis 0 0 0   XYZ
    dof ry rz
    limits (-20.0 10.0)
           (0.0 20.0)
  end
  begin
     id 18 
     name lhumerus
     direction 1 -4.48966e-011 -1.32191e-028   
     length 5.70706   
     axis 180 -30 -90   XYZ
    dof rx ry rz
    limits (-60.0 90.0)
           (-90.0 90.0)
           (-90.0 90.0)
  end
  begin
     id 19
     name lradius
     direction 1 -4.48976e-011 9.36106e-027   
     length 3.33243   
     axis 180 -30 -90   XYZ
    dof rx
    limits (-10.0 170.0)
  end
  begin
     id 20
     name lwrist
     direction 1 -4.48976e-011 1.1555e-026   
     length 1.66621   
     axis -5.7412e-015 90 90   XYZ
    dof ry
    limits (-180.0 0.0)
 end
  begin
     id 21 
     name lhand
     direction 1 -4.48939e-011 2.31113e-026   
     length 0.792687   
     axis -1.47463e-014 90 90   XYZ
    dof rx rz
    limits (-90.0 90.0)
           (-45.0 45.0)
  end
  begin
     id 22 
     name lfingers
     direction 1 -4.48866e-011 4.62274e-026   
     length 0.639085   
     axis -2.94925e-014 90 90   XYZ
    dof rx
    limits (0.0 90.0)
  end
  begin
     id 23
     name lthumb
     direction 0.707107 -6.34847e-011 0.707107   
     length 0.917601   
     axis -90 45 -6.68868e-015   XYZ
    dof rx rz
    limits (-45.0 45.0)
           (-45.0 45.0)
  end
  begin
     id 24 
     name rclavicle
     direction -0.981813 0.185514 0.0403428   
     length 3.47271  
     axis 0 0 0   XYZ 
    dof ry rz
    limits (-10.0 20.0)
           (-20.0 0.0)
  end
  begin
     id 25 
     name rhumerus
     direction -1 -4.48972e-011 -6.58544e-029  
     length 5.88176   
     axis 180 30 90   XYZ
    dof rx ry rz
    limits (-90.0 60.0)
           (-90.0 90.0)
           (-90.0 90.0)
  end
  begin
     id 26 
     name rradius
     direction -1 -4.48964e-011 8.36306e-027   
     length 3.28156   
     axis 180 30 90   XYZ
    dof rx
    limits (-10.0 170.0)
  end
  begin
     id 27 
     name rwrist
     direction -1 -4.48903e-011 1.15562e-026   
     length 1.64078   
     axis -5.7412e-015 -90 -90   XYZ
    dof ry
    limits (-180.0 0.0)
  end
  begin
     id 28
     name rhand
     direction -1 -4.49055e-011 2.31074e-026   
     length 0.863125   
     axis -1.47463e-014 -90 -90   XYZ
    dof rx rz
    limits (-90.0 90.0)
           (-45.0 45.0)
  end
  begin
     id 29
     name rfingers
     direction -1 -4.48994e-011 4.62188e-026   
     length 0.695873   
     axis -2.94925e-014 -90 -90   XYZ
    dof rx
    limits (0.0 90.0)
  end
  begin
     id 30
     name rthumb
     direction -0.707107 -6.35058e-011 0.707107   
     length 0.999139   
     axis -90 -45 6.68868e-015   XYZ
    dof rx rz
    limits (-45.0 45.0)
           (-45.0 45.0)
  end
:hierarchy
  begin
    root lhipjoint rhipjoint lowerback
    lhipjoint lfemur
    lfemur ltibia
    ltibia lfoot
    lfoot ltoes
    rhipjoint rfemur
    rfemur rtibia
    rtibia rfoot
    rfoot rtoes
    lowerback upperback
    upperback thorax
    thorax lowerneck lclavicle rclavicle
    lowerneck upperneck
    upperneck head
    lclavicle lhumerus
    lhumerus lradius
    lradius lwrist
    lwrist lhand lthumb
    lhand lfingers
    rclavicle rhumerus
    rhumerus rradius
    rradius rwrist
    rwrist rhand rthumb
    rhand rfingers
  end

#!OML:ASF \\Waltz\H\Terrain\Patient Classification 1\Animal2\Wednesday\Animal2.ASF
:FULLY-SPECIFIED
:DEGREES
205
root 1.88092 17.3122 -22.938 1.84578 0.482084 1.81914
lowerback 5.16904 -0.488313 2.26518
upperback -3.75928 -0.579065 -1.76349
thorax -6.8753 -0.441465 -3.05672
lowerneck 8.30225 4.77005 14.3998
upperneck -11.278 6.28189 -18.3494
head -3.55923 3.60346 -8.49999
rclavicle 4.33599e-015 6.26172e-015
rhumerus 0.299879 28.3284 -77.1833
rradius 90.8017
rwrist -25.0199
rhand -23.0428 15.4655
rfingers 7.12502
rthumb 3.40179 -14.4871
lclavicle 4.33599e-015 6.26172e-015
lhumerus 24.3874 6.03199 2.41111
lradius 68.1721
lwrist -13.9015
lhand -44.5286 -2.30429
lfingers 7.12502
lthumb -17.33 26.9431
rfemur -16.0949 -1.21905 21.9465
rtibia 43.5486
rfoot -25.4871 1.42037
rtoes 22.8628
lfemur -18.6614 1.3104 -24.0482
ltibia 35.5444
lfoot -18.7252 -10.4852
ltoes -3.4962
206
root 1.87378 17.2932 -22.9391 1.68635 0.594367 2.00658
lowerback 5.54359 -0.516356 1.98021
upperback -3.6676 -0.642895 -1.88799
thorax -6.99639 -0.463197 -3.01888
lowerneck 8.01074 4.8171 14.3583
upperneck -11.0326 6.36506 -18.0011
head -3.43951 3.61378 -8.35332
rclavicle 2.47238e-015 7.15625e-015
rhumerus 0.300589 28.1403 -77.3311
rradius 90.8893
rwrist -24.9589
rhand -23.4005 15.2572
rfingers 7.12502
rthumb 3.05637 -14.7006
lclavicle 2.47238e-015 7.15625e-015
lhumerus 24.6818 6.10548 1.88979
lradius 67.8772
lwrist -14.6022
lhand -44.4677 -3.77722
lfingers 7.12502
lthumb -17.2713 25.4753
rfemur -16.7945 -1.08431 21.6436
rtibia 45.16
rfoot -25.8175 0.980589
rtoes 16.9167
lfemur -18.5609 1.58115 -24.2097
ltibia 35.6303
lfoot -18.7371 -11.0073
ltoes -2.2478
207
root 1.86939 17.2757 -22.9439 1.61633 0.579232 2.45919
lowerback 5.79499 -0.543821 1.43984
upperback -3.54395 -0.735767 -2.07367
thorax -7.01059 -0.486753 -2.89738
lowerneck 8.09771 4.90943 14.2065
upperneck -11.4626 6.4765 -17.6338
head -3.58248 3.65882 -8.22739
rclavicle -3.2054e-015 9.34288e-015
rhumerus 0.580092 28.1113 -77.3742
rradius 90.9343
rwrist -24.8108
rhand -23.9087 15.009
rfingers 7.12502
rthumb 2.56553 -14.9553
lclavicle -3.2054e-015 9.34288e-015
lhumerus 24.8494 6.29994 1.40303
lradius 67.6005
lwrist -15.3817
lhand -44.5789 -4.56678
lfingers 7.12502
lthumb -17.3785 24.6763
rfemur -17.5605 -0.815531 20.9693
rtibia 46.6445
rfoot -25.824 1.29355
rtoes 15.0315
lfemur -18.556 1.83929 -24.7079
ltibia 35.7163
lfoot -18.7898 -11.2948
ltoes -2.16637
208
root 1.86802 17.2624 -22.9359 1.50964 0.70298 2.95835
lowerback 5.94847 -0.609658 0.906875
upperback -3.47246 -0.882695 -2.26275
thorax -7.02648 -0.538166 -2.77729
lowerneck 6.03568 4.63014 15.1805
upperneck -9.56997 6.08282 -18.2747
head -2.68348 3.37143 -8.44729
rclavicle 3.926e-015 -2.5842e-015
rhumerus 0.622738 28.1069 -77.4779
rradius 90.9576
rwrist -24.8329
rhand -24.069 14.9702
rfingers 7.12502
rthumb 2.41073 -14.9959
lclavicle 3.926e-015 -2.5842e-015
lhumerus 25.0066 6.4396 1.23528
lradius 67.3354
lwrist -16.0799
lhand -44.4773 -5.35176
lfingers 7.12502
lthumb -17.2806 23.9
rfemur -18.1029 -0.576376 20.1337
rtibia 47.9913
rfoot -25.6756 2.77411
rtoes 15.0905
lfemur -18.4182 1.75994 -25.2937
ltibia 35.7845
lfoot -18.899 -11.2374
ltoes -1.90957
209
root 1.86412 17.2494 -22.926 1.30054 0.85286 3.16345
lowerback 6.01459 -0.656926 0.770472
upperback -3.31576 -0.969835 -2.47892
thorax -6.90506 -0.577877 -2.91648
lowerneck 8.59049 4.70831 13.9689
upperneck -12.0825 6.24129 -16.9218
head -3.92888 3.52902 -7.99608
rclavicle -6.95746e-016 -1.94809e-014
rhumerus 0.536964 27.8313 -77.7393
rradius 91.1302
rwrist -25.0276
rhand -23.9737 14.7715
rfingers 7.12502
rthumb 2.50276 -15.1936
lclavicle -6.95746e-016 -1.94809e-014
lhumerus 25.3366 6.56176 1.01378
lradius 67.1385
lwrist -16.2633
lhand -44.3547 -5.73533
lfingers 7.12502
lthumb -17.1626 23.5267
rfemur -18.4166 -0.275125 19.6413
rtibia 49.1805
rfoot -25.6768 3.96324
rtoes 15.7639
lfemur -18.1583 1.64014 -25.5359
ltibia 35.8223
lfoot -18.9197 -11.0596
ltoes -1.66376
210
root 1.86028 17.2375 -22.918 1.12394 0.922889 3.3168
lowerback 5.5933 -0.723341 0.849012
upperback -2.79776 -1.05928 -2.80877
thorax -6.12804 -0.621141 -3.29679
lowerneck 8.56083 4.59708 14.1594
upperneck -12.4751 6.09837 -16.7254
head -4.06473 3.43667 -7.97721
rclavicle -8.83349e-015 -6.75868e-015
rhumerus 1.2811 27.4627 -77.8848
rradius 91.2265
rwrist -24.9074
rhand -24.173 14.1068
rfingers 7.12502
rthumb 2.31031 -15.8604
lclavicle -8.83349e-015 -6.75868e-015
lhumerus 25.7517 7.13799 0.540495
lradius 66.8625
lwrist -16.269
lhand -44.3637 -5.70132
lfingers 7.12502
lthumb -17.1713 23.56
rfemur -18.7101 -0.0142925 19.236
rtibia 50.2138
rfoot -25.7918 4.32435
rtoes 16.6957
lfemur -17.9938 1.76972 -25.7072
ltibia 35.9197
lfoot -18.8426 -11.1333
ltoes -1.21347
211
root 1.85866 17.2236 -22.9098 1.01308 1.00843 3.53642
lowerback 6.39361 -0.620552 0.292924
upperback -3.15354 -0.978265 -2.69097
thorax -6.94755 -0.56427 -2.86698
lowerneck 8.42991 4.33675 14.1869
upperneck -11.7888 5.7852 -16.7565
head -3.88951 3.27824 -7.95257
rclavicle -6.18717e-015 2.38542e-015
rhumerus 0.534252 27.4425 -77.7624
rradius 91.2153
rwrist -24.8708
rhand -24.5016 14.2804
rfingers 7.12502
rthumb 1.9929 -15.6901
lclavicle -6.18717e-015 2.38542e-015
lhumerus 26.0559 6.58801 1.02676
lradius 66.6833
lwrist -16.2633
lhand -44.1061 -6.43664
lfingers 7.12502
lthumb -16.9233 22.846
rfemur -19.0531 0.266978 18.7358
rtibia 51.1418
rfoot -25.7561 4.86796
rtoes 16.9028
lfemur -17.9341 1.82895 -25.9611
ltibia 36.0992
lfoot -18.9116 -11.2731
ltoes -1.06113
212
root 1.85139 17.206 -22.9148 0.901197 1.06166 3.43422
lowerback 6.9325 -0.537268 0.158677
upperback -3.24671 -0.884072 -2.62182
thorax -7.34989 -0.513166 -2.72992
lowerneck 8.41805 4.13244 13.9634
upperneck -11.6584 5.53428 -16.2866
head -3.91589 3.13503 -7.7482
rclavicle 1.1778e-014 2.38542e-015
rhumerus 0.0255179 27.1781 -77.8003
rradius 91.3017
rwrist -25.0825
rhand -24.3987 14.6824
rfingers 7.12502
rthumb 2.09231 -15.2871
lclavicle 1.1778e-014 2.38542e-015
lhumerus 26.4307 6.51266 1.49105
lradius 66.6066
lwrist -16.179
lhand -43.5748 -6.86924
lfingers 7.12502
lthumb -16.4118 22.4565
rfemur -19.4021 0.773795 18.6646
rtibia 51.9423
rfoot -25.7806 4.98275
rtoes 17.5696
lfemur -17.9795 1.67801 -25.8338
ltibia 36.3419
lfoot -19.0919 -11.0227
ltoes -2.22467
213
root 1.84487 17.1963 -22.9217 0.771148 1.08536 3.26387
lowerback 7.30625 -0.492504 0.0658439
upperback -3.25875 -0.828638 -2.47553
thorax -7.57219 -0.478694 -2.53013
lowerneck 8.56169 3.8846 13.5852
upperneck -11.7113 5.20421 -15.8275
head -4.03757 2.96523 -7.53246
rclavicle 7.74018e-015 -3.97569e-015
rhumerus -0.32183 26.9894 -77.7943
rradius 91.6449
rwrist -25.0537
rhand -24.0057 14.2476
rfingers 7.12502
rthumb 2.47189 -15.7178
lclavicle 7.74018e-015 -3.97569e-015
lhumerus 26.6823 6.519 2.07257
lradius 66.5151
lwrist -15.9468
lhand -43.2079 -6.37262
lfingers 7.12502
lthumb -16.0586 22.9819
rfemur -19.6872 1.24223 18.6306
rtibia 52.6
rfoot -25.9729 4.45328
rtoes 19.5145
lfemur -18.0276 1.61709 -25.6319
ltibia 36.6227
lfoot -19.3062 -10.6894
ltoes -3.70961
214
root 1.84185 17.1934 -22.9049 0.663333 1.13539 3.05229
lowerback 6.59393 -0.564466 0.426029
upperback -2.66195 -0.876041 -2.60053
thorax -6.53545 -0.510186 -2.8557
lowerneck 8.19612 3.73283 13.5361
upperneck -11.9501 4.96225 -15.512
head -4.09534 2.8162 -7.41008
rclavicle -6.72141e-015 1.74931e-014
rhumerus 0.487579 26.755 -77.7879
rradius 91.6559
rwrist -24.8808
rhand -23.8983 13.9212
rfingers 7.12502
rthumb 2.57555 -16.043
lclavicle -6.72141e-015 1.74931e-014
lhumerus 27.059 7.41004 2.33217
lradius 66.4186
lwrist -15.5354
lhand -43.2617 -5.58542
lfingers 7.12502
lthumb -16.1104 23.7649
rfemur -19.7378 1.65513 18.5678
rtibia 53.0515
rfoot -26.28 3.50683
rtoes 21.3705
lfemur -18.0041 1.64192 -25.3985
ltibia 36.9695
lfoot -19.8758 -10.4388
ltoes -5.82854
